<svg xmlns="http://www.w3.org/2000/svg" width="268.471" height="66.041" viewBox="0 0 268.471 66.041">
  <path id="Union_2" data-name="Union 2" d="M-2291-1186.742v-10.819h57.724v10.819Zm96.8-18.034h-82.635V-1215.6h82.635v-25.25h-46.9v-10.819h57.715v46.9Zm105.613-2.14v-8.531h5.537v1.2h-4.054v2.355h3.5v1.172h-3.5v2.625h4.1v1.183Zm-11.25,0v-7.336h-2.637v-1.2h6.768v1.2h-2.66v7.336Zm-9.844,0-.7-1.986h-3.3l-.692,1.986h-1.541l3.223-8.531h1.33l3.228,8.531Zm-3.585-3.182h2.472l-1.236-3.54Zm-12.914,3.182-3.059-8.531h1.624l2.145,6.674,2.168-6.674h1.628l-3.07,8.531Zm-15.082,0v-8.531h5.537v1.2h-4.054v2.355h3.5v1.172h-3.5v2.625h4.1v1.183Zm-12.492,0v-8.531h1.482v7.348h3.873v1.183Zm-12.785,0v-8.531H-2161v1.2h-4.054v2.355h3.5v1.172h-3.5v2.625h4.1v1.183Zm-92.412-15.9v-10.818h57.725v10.818Zm143.277-6.88a7.79,7.79,0,0,1-3.481-2.8,7.3,7.3,0,0,1-1.168-4.1h5.672a3.594,3.594,0,0,0,.976,2.779,4.6,4.6,0,0,0,3.166.895,3.641,3.641,0,0,0,2.215-.6,2,2,0,0,0,.814-1.7,2.327,2.327,0,0,0-.878-1.934,10.931,10.931,0,0,0-3.086-1.434,29.448,29.448,0,0,1-3.609-1.435q-4.56-2.24-4.56-6.155a5.522,5.522,0,0,1,1.136-3.44,7.345,7.345,0,0,1,3.215-2.32,12.5,12.5,0,0,1,4.673-.83,10.948,10.948,0,0,1,4.536.9,7.184,7.184,0,0,1,3.118,2.57,6.71,6.71,0,0,1,1.112,3.811h-5.64a2.838,2.838,0,0,0-.877-2.224,3.428,3.428,0,0,0-2.377-.789,3.863,3.863,0,0,0-2.393.669,2.052,2.052,0,0,0-.878,1.7,2.067,2.067,0,0,0,.968,1.635,12.194,12.194,0,0,0,3.4,1.515,20.822,20.822,0,0,1,4,1.684q3.8,2.191,3.8,6.043a5.73,5.73,0,0,1-2.32,4.834,10.321,10.321,0,0,1-6.365,1.757A12.621,12.621,0,0,1-2115.671-1229.7Zm87.084.7-4.141-8.3h-3.061v8.3h-5.656v-23.46h9.233a10.3,10.3,0,0,1,6.526,1.851,6.27,6.27,0,0,1,2.353,5.231,7.617,7.617,0,0,1-.991,4.056,7.034,7.034,0,0,1-3.1,2.607l4.9,9.474v.241Zm-7.2-12.649h3.577a3.213,3.213,0,0,0,2.426-.848,3.282,3.282,0,0,0,.814-2.367,3.32,3.32,0,0,0-.822-2.382,3.182,3.182,0,0,0-2.417-.864h-3.577Zm-29.4,12.649v-23.46H-2049v4.367h-10.538v4.946h8.895v4.19h-8.895v5.607h10.507V-1229Zm-14.48,0-8.315-14.6v14.6h-5.656v-23.46h5.656l8.3,14.6v-14.6h5.639V-1229Zm-63.074,0v-23.46h5.656v19.11h9.845V-1229Zm-23.746,0v-23.46h16.194v4.367h-10.538v4.946h8.895v4.19h-8.895v5.607h10.506V-1229Z" transform="translate(2291 1252.783)" fill="#fff"/>
</svg>
